<svg width="32" height="32" viewBox="0 0 32 32" fill="none" xmlns="http://www.w3.org/2000/svg">
<g clip-path="url(#clip0_4_742)">
<path d="M29.9534 7.10705L13.9081 11.7181C13.7197 11.8254 13.5035 11.8883 13.2799 11.9009L7.76836 13.4819H30.6915C31.0385 13.4819 31.3713 13.6038 31.6167 13.8209C31.8621 14.0379 32 14.3323 32 14.6393V26.2131C32 27.7479 31.3107 29.2198 30.0837 30.3051C28.8567 31.3903 27.1925 32 25.4573 32H7.13764C5.4024 32 3.73823 31.3903 2.51123 30.3051C1.28423 29.2198 0.594909 27.7479 0.594909 26.2131V14.6393C0.594909 14.3939 0.681273 14.1648 0.830447 13.9749L0.320114 12.5815C-0.215968 11.1219 -0.0746014 9.53373 0.713118 8.16634C1.50084 6.79894 2.87039 5.76429 4.52054 5.28996L21.9425 0.283134C23.5927 -0.191019 25.3883 -0.0659836 26.9343 0.630738C28.4803 1.32746 29.6501 2.5388 30.1864 3.99833L30.7935 5.64875C30.9007 5.94067 30.8725 6.2583 30.7149 6.53178C30.5574 6.80526 30.2835 7.01219 29.9534 7.10705ZM20.155 7.48899L23.518 2.33633C23.2575 2.36305 23.0006 2.41268 22.7512 2.48447L19.4929 3.41964L16.0698 8.66257L20.1524 7.48899H20.155ZM26.1613 2.90807C26.1451 2.93724 26.1277 2.96581 26.1089 2.99372L23.8739 6.41957L27.899 5.26219L27.6975 4.71359C27.4284 3.97658 26.8875 3.34079 26.1613 2.90807ZM15.7714 4.48906L11.6888 5.66264L8.26298 10.9056L12.3456 9.73199L15.774 4.48906H15.7714ZM3.01048 12.4171L4.54672 11.9773L7.96725 6.73206L5.32923 7.4913C4.33914 7.7759 3.5174 8.39669 3.04477 9.21713C2.57214 10.0376 2.48732 10.9905 2.80897 11.8662L3.01048 12.4171Z" fill="#D4E34A"/>
</g>
<defs>
<clipPath id="clip0_4_742">
<rect width="32" height="32" fill="white"/>
</clipPath>
</defs>
</svg>
