<svg width="141" height="63" viewBox="0 0 141 63" fill="none" xmlns="http://www.w3.org/2000/svg">
<path d="M45.6976 20.328L27.6466 26.38C27.4347 26.5208 27.1915 26.6034 26.9399 26.62L20.7394 28.695H46.5279C46.9183 28.695 47.2928 28.855 47.5688 29.1399C47.8449 29.4248 48 29.8112 48 30.2141V45.4047C48 47.4191 47.2245 49.351 45.8441 50.7754C44.4638 52.1998 42.5916 53 40.6394 53H20.0298C18.0777 53 16.2055 52.1998 14.8251 50.7754C13.4448 49.351 12.6693 47.4191 12.6693 45.4047V30.2141C12.6693 29.892 12.7664 29.5912 12.9343 29.3421L12.3601 27.5132C11.757 25.5975 11.9161 23.513 12.8023 21.7183C13.6884 19.9236 15.2292 18.5656 17.0856 17.9431L36.6853 11.3716C38.5418 10.7493 40.5619 10.9134 42.3011 11.8278C44.0403 12.7423 45.3563 14.3322 45.9597 16.2478L46.6427 18.414C46.7633 18.7971 46.7315 19.214 46.5543 19.573C46.377 19.9319 46.0689 20.2035 45.6976 20.328ZM34.6744 20.8293L38.4578 14.0664C38.1647 14.1015 37.8757 14.1666 37.5951 14.2609L33.9295 15.4883L30.0785 22.3696L34.6715 20.8293H34.6744ZM41.4314 14.8168C41.4133 14.8551 41.3936 14.8926 41.3725 14.9293L38.8582 19.4257L43.3864 17.9066L43.1597 17.1866C42.857 16.2193 42.2484 15.3848 41.4314 14.8168ZM29.7428 16.8919L25.1499 18.4322L21.2959 25.3136L25.8889 23.7732L29.7458 16.8919H29.7428ZM15.3868 27.2975L17.1151 26.7202L20.9632 19.8358L17.9954 20.8323C16.8815 21.2059 15.9571 22.0207 15.4254 23.0975C14.8937 24.1743 14.7982 25.425 15.1601 26.5744L15.3868 27.2975Z" fill="#D4E34A"/>
<path d="M70.7404 30.672H67.5724V45H60.4804V30.672H58.2844V24.804H60.4804V24.624C60.4804 22.032 61.2364 20.052 62.7484 18.684C64.2844 17.292 66.4804 16.596 69.3364 16.596C69.9124 16.596 70.3564 16.608 70.6684 16.632V22.644C70.4764 22.62 70.2124 22.608 69.8764 22.608C69.1084 22.608 68.5444 22.788 68.1844 23.148C67.8244 23.484 67.6204 24.036 67.5724 24.804H70.7404V30.672ZM80.3181 18.36V45H73.2621V18.36H80.3181ZM87.9003 22.932C86.6523 22.932 85.6443 22.596 84.8763 21.924C84.1323 21.228 83.7603 20.364 83.7603 19.332C83.7603 18.276 84.1323 17.4 84.8763 16.704C85.6443 16.008 86.6523 15.66 87.9003 15.66C89.1243 15.66 90.1083 16.008 90.8523 16.704C91.6203 17.4 92.0043 18.276 92.0043 19.332C92.0043 20.364 91.6203 21.228 90.8523 21.924C90.1083 22.596 89.1243 22.932 87.9003 22.932ZM91.3923 24.804V45H84.3363V24.804H91.3923ZM108.011 45L104.375 39.924L101.495 45H93.7545L100.487 34.524L93.4665 24.804H101.387L105.023 29.88L107.939 24.804H115.679L108.803 35.1L115.931 45H108.011Z" fill="#D4E34A"/>
</svg>
